<svg xmlns="http://www.w3.org/2000/svg" width="60" height="60" fill="none" viewBox="0 0 60 60"><path fill="#006CEA" d="M0 0H30C21.7157 0 15 6.71572 15 15H0V0Z"/><path fill="#FF6846" d="M0 60L-1.31134e-06 30C-9.49224e-07 38.2843 6.71572 45 15 45L15 60L0 60Z"/><path fill="#FFD02A" d="M60 60L30 60C38.2843 60 45 53.2843 45 45L60 45L60 60Z"/><path fill="#57E690" d="M60 0L60 30C60 21.7157 53.2843 15 45 15L45 -6.55671e-07L60 0Z"/><path fill="#FF6846" d="M30 30C30 21.7157 36.7157 15 45 15L30 0L15 15C23.2843 15 30 21.7157 30 30Z"/><path fill="#57E690" d="M30 30C30 38.2843 23.2843 45 15 45L30 60L45 45C36.7157 45 30 38.2843 30 30Z"/><path fill="#006CEA" d="M30 30C38.2843 30 45 36.7157 45 45L60 30L45 15C45 23.2843 38.2843 30 30 30Z"/><path fill="#FFD02A" d="M30 30C21.7157 30 15 36.7157 15 45L-1.78873e-07 30L15 15C15 23.2843 21.7157 30 30 30Z"/></svg>